<svg xmlns="http://www.w3.org/2000/svg" version="1.1" xmlns:xlink="http://www.w3.org/1999/xlink" xmlns:svgjs="http://svgjs.dev/svgjs" width="1000" height="1000"><g clip-path="url(#SvgjsClipPath1090)"><rect width="1000" height="1000" fill="#ffffff"></rect><g transform="matrix(1.125,0,0,1.125,50,50)"><svg xmlns="http://www.w3.org/2000/svg" version="1.1" xmlns:xlink="http://www.w3.org/1999/xlink" xmlns:svgjs="http://svgjs.dev/svgjs" width="800px" height="800px"><svg width="800px" height="800px" viewBox="0 0 24 24" fill="none" xmlns="http://www.w3.org/2000/svg">
<path d="M14 19H16C17.1046 19 18 18.1046 18 17V14.5616C18 13.6438 18.6246 12.8439 19.5149 12.6213L21.0299 12.2425C21.2823 12.1794 21.2823 11.8206 21.0299 11.7575L19.5149 11.3787C18.6246 11.1561 18 10.3562 18 9.43845V5H14" stroke="#33363F" stroke-width="2"></path>
<path d="M10 5H8C6.89543 5 6 5.89543 6 7V9.43845C6 10.3562 5.37541 11.1561 4.48507 11.3787L2.97014 11.7575C2.71765 11.8206 2.71765 12.1794 2.97014 12.2425L4.48507 12.6213C5.37541 12.8439 6 13.6438 6 14.5616V19H10" stroke="#33363F" stroke-width="2"></path>
</svg></svg></g></g><defs><clipPath id="SvgjsClipPath1090"><rect width="1000" height="1000" x="0" y="0" rx="250" ry="250"></rect></clipPath></defs></svg>